<mxfile host="app.diagrams.net" modified="2024-01-15T21:16:17.057Z" agent="Mozilla/5.0 (Windows NT 10.0; Win64; x64) AppleWebKit/537.36 (KHTML, like Gecko) Chrome/120.0.0.0 Safari/537.36" etag="jHs2X3rbUPmkZqK24PwD" version="22.1.16" type="github">
  <diagram name="Sayfa -1" id="tAK1WNqzjO5zu7eQM2dV">
    <mxGraphModel dx="3500" dy="2010" grid="1" gridSize="10" guides="1" tooltips="1" connect="1" arrows="1" fold="1" page="1" pageScale="1" pageWidth="1200" pageHeight="1920" background="#FFFFFF" math="0" shadow="0">
      <root>
        <mxCell id="0" />
        <mxCell id="1" parent="0" />
        <mxCell id="LRJ7ucOdWmaU4i4guX7y-22" value="&lt;h1&gt;USER&lt;/h1&gt;" style="whiteSpace=wrap;html=1;strokeColor=#457B9D;fontColor=#1D3557;fillColor=#A8DADC;labelBackgroundColor=none;" parent="1" vertex="1">
          <mxGeometry x="299.99999999999994" y="130" width="150" height="70" as="geometry" />
        </mxCell>
        <mxCell id="-7qrSR0_tHpjOpSgIJrC-9" value="" style="endArrow=none;html=1;rounded=0;exitX=1;exitY=0.5;exitDx=0;exitDy=0;entryX=0;entryY=0.5;entryDx=0;entryDy=0;" edge="1" parent="1" source="LRJ7ucOdWmaU4i4guX7y-22" target="-7qrSR0_tHpjOpSgIJrC-16">
          <mxGeometry width="50" height="50" relative="1" as="geometry">
            <mxPoint x="830" y="480" as="sourcePoint" />
            <mxPoint x="734.6399999999999" y="170" as="targetPoint" />
          </mxGeometry>
        </mxCell>
        <mxCell id="-7qrSR0_tHpjOpSgIJrC-10" value="&lt;h1&gt;API&#39;LAR&lt;/h1&gt;" style="whiteSpace=wrap;html=1;strokeColor=#457B9D;fontColor=#1D3557;fillColor=#A8DADC;labelBackgroundColor=none;" vertex="1" parent="1">
          <mxGeometry x="1980" y="1000" width="260" height="150" as="geometry" />
        </mxCell>
        <mxCell id="-7qrSR0_tHpjOpSgIJrC-23" style="edgeStyle=orthogonalEdgeStyle;rounded=0;orthogonalLoop=1;jettySize=auto;html=1;" edge="1" parent="1" source="-7qrSR0_tHpjOpSgIJrC-16" target="-7qrSR0_tHpjOpSgIJrC-19">
          <mxGeometry relative="1" as="geometry" />
        </mxCell>
        <mxCell id="-7qrSR0_tHpjOpSgIJrC-16" value="&lt;font style=&quot;font-size: 28px;&quot;&gt;Görüntü inputu&lt;/font&gt;" style="ellipse;whiteSpace=wrap;html=1;fillColor=#e1d5e7;strokeColor=#9673a6;" vertex="1" parent="1">
          <mxGeometry x="1050" y="102.5" width="310" height="125" as="geometry" />
        </mxCell>
        <mxCell id="-7qrSR0_tHpjOpSgIJrC-54" style="edgeStyle=orthogonalEdgeStyle;rounded=0;orthogonalLoop=1;jettySize=auto;html=1;entryX=0.5;entryY=0;entryDx=0;entryDy=0;fillColor=#dae8fc;strokeColor=#6c8ebf;strokeWidth=4;" edge="1" parent="1" source="-7qrSR0_tHpjOpSgIJrC-19" target="-7qrSR0_tHpjOpSgIJrC-20">
          <mxGeometry relative="1" as="geometry" />
        </mxCell>
        <mxCell id="-7qrSR0_tHpjOpSgIJrC-74" style="edgeStyle=orthogonalEdgeStyle;rounded=0;orthogonalLoop=1;jettySize=auto;html=1;entryX=1;entryY=0.5;entryDx=0;entryDy=0;" edge="1" parent="1" source="-7qrSR0_tHpjOpSgIJrC-19" target="-7qrSR0_tHpjOpSgIJrC-73">
          <mxGeometry relative="1" as="geometry" />
        </mxCell>
        <mxCell id="-7qrSR0_tHpjOpSgIJrC-19" value="&lt;h1&gt;APP BACKEND&lt;/h1&gt;" style="whiteSpace=wrap;html=1;strokeColor=#457B9D;fontColor=#1D3557;fillColor=#A8DADC;labelBackgroundColor=none;" vertex="1" parent="1">
          <mxGeometry x="1130" y="625" width="150" height="70" as="geometry" />
        </mxCell>
        <mxCell id="-7qrSR0_tHpjOpSgIJrC-57" style="edgeStyle=orthogonalEdgeStyle;rounded=0;orthogonalLoop=1;jettySize=auto;html=1;entryX=0.75;entryY=0;entryDx=0;entryDy=0;" edge="1" parent="1" source="-7qrSR0_tHpjOpSgIJrC-20" target="-7qrSR0_tHpjOpSgIJrC-10">
          <mxGeometry relative="1" as="geometry" />
        </mxCell>
        <mxCell id="-7qrSR0_tHpjOpSgIJrC-20" value="&lt;font style=&quot;font-size: 27px;&quot;&gt;Gelen veriyi API&#39;a iletir&lt;/font&gt;" style="ellipse;whiteSpace=wrap;html=1;fillColor=#e1d5e7;strokeColor=#9673a6;" vertex="1" parent="1">
          <mxGeometry x="1980" y="597.5" width="310" height="125" as="geometry" />
        </mxCell>
        <mxCell id="-7qrSR0_tHpjOpSgIJrC-26" value="" style="endArrow=none;html=1;rounded=0;entryX=0.5;entryY=1;entryDx=0;entryDy=0;exitX=0.688;exitY=0.021;exitDx=0;exitDy=0;exitPerimeter=0;" edge="1" parent="1" source="-7qrSR0_tHpjOpSgIJrC-27" target="-7qrSR0_tHpjOpSgIJrC-10">
          <mxGeometry width="50" height="50" relative="1" as="geometry">
            <mxPoint x="1425" y="1005" as="sourcePoint" />
            <mxPoint x="1305" y="775" as="targetPoint" />
          </mxGeometry>
        </mxCell>
        <mxCell id="-7qrSR0_tHpjOpSgIJrC-27" value="&lt;font style=&quot;font-size: 27px;&quot;&gt;Gelen veriyi gerçek zamanlı şekilde ai modeline iletir&lt;/font&gt;" style="ellipse;whiteSpace=wrap;html=1;fillColor=#e1d5e7;strokeColor=#9673a6;" vertex="1" parent="1">
          <mxGeometry x="1430" y="1320" width="480" height="195" as="geometry" />
        </mxCell>
        <mxCell id="-7qrSR0_tHpjOpSgIJrC-31" style="edgeStyle=orthogonalEdgeStyle;rounded=0;orthogonalLoop=1;jettySize=auto;html=1;" edge="1" parent="1" source="-7qrSR0_tHpjOpSgIJrC-28" target="-7qrSR0_tHpjOpSgIJrC-30">
          <mxGeometry relative="1" as="geometry" />
        </mxCell>
        <mxCell id="-7qrSR0_tHpjOpSgIJrC-28" value="&lt;h1&gt;AI MODEL(TTS veya IMAGE)&lt;/h1&gt;" style="whiteSpace=wrap;html=1;strokeColor=#457B9D;fontColor=#1D3557;fillColor=#A8DADC;labelBackgroundColor=none;" vertex="1" parent="1">
          <mxGeometry x="1995" y="1510" width="255" height="110" as="geometry" />
        </mxCell>
        <mxCell id="-7qrSR0_tHpjOpSgIJrC-29" style="edgeStyle=orthogonalEdgeStyle;rounded=0;orthogonalLoop=1;jettySize=auto;html=1;entryX=0.422;entryY=0.005;entryDx=0;entryDy=0;entryPerimeter=0;" edge="1" parent="1" source="-7qrSR0_tHpjOpSgIJrC-27" target="-7qrSR0_tHpjOpSgIJrC-28">
          <mxGeometry relative="1" as="geometry" />
        </mxCell>
        <mxCell id="-7qrSR0_tHpjOpSgIJrC-32" style="edgeStyle=orthogonalEdgeStyle;rounded=0;orthogonalLoop=1;jettySize=auto;html=1;entryX=0.75;entryY=1;entryDx=0;entryDy=0;" edge="1" parent="1" source="-7qrSR0_tHpjOpSgIJrC-30" target="-7qrSR0_tHpjOpSgIJrC-10">
          <mxGeometry relative="1" as="geometry" />
        </mxCell>
        <mxCell id="-7qrSR0_tHpjOpSgIJrC-30" value="&lt;font style=&quot;font-size: 27px;&quot;&gt;gelen veriyi işler ve kullanıcıya geri bildirim için api a çıktıyı verir&lt;/font&gt;" style="ellipse;whiteSpace=wrap;html=1;fillColor=#e1d5e7;strokeColor=#9673a6;" vertex="1" parent="1">
          <mxGeometry x="2160" y="1260" width="350" height="175" as="geometry" />
        </mxCell>
        <mxCell id="-7qrSR0_tHpjOpSgIJrC-34" value="&lt;span style=&quot;font-size: 26px;&quot;&gt;veriyi işlemek üzere backend&#39;e iletir&lt;/span&gt;" style="ellipse;whiteSpace=wrap;html=1;fillColor=#e1d5e7;strokeColor=#9673a6;" vertex="1" parent="1">
          <mxGeometry x="1040" y="1010" width="330" height="260" as="geometry" />
        </mxCell>
        <mxCell id="-7qrSR0_tHpjOpSgIJrC-71" style="edgeStyle=orthogonalEdgeStyle;rounded=0;orthogonalLoop=1;jettySize=auto;html=1;" edge="1" parent="1" source="-7qrSR0_tHpjOpSgIJrC-41" target="-7qrSR0_tHpjOpSgIJrC-69">
          <mxGeometry relative="1" as="geometry" />
        </mxCell>
        <mxCell id="-7qrSR0_tHpjOpSgIJrC-41" value="&lt;h1&gt;DATABASE&lt;/h1&gt;" style="whiteSpace=wrap;html=1;strokeColor=#457B9D;fontColor=#1D3557;fillColor=#A8DADC;labelBackgroundColor=none;" vertex="1" parent="1">
          <mxGeometry x="190" y="740" width="150" height="70" as="geometry" />
        </mxCell>
        <mxCell id="-7qrSR0_tHpjOpSgIJrC-59" style="edgeStyle=orthogonalEdgeStyle;rounded=0;orthogonalLoop=1;jettySize=auto;html=1;entryX=1;entryY=0.5;entryDx=0;entryDy=0;" edge="1" parent="1" source="-7qrSR0_tHpjOpSgIJrC-10" target="-7qrSR0_tHpjOpSgIJrC-34">
          <mxGeometry relative="1" as="geometry" />
        </mxCell>
        <mxCell id="-7qrSR0_tHpjOpSgIJrC-62" style="edgeStyle=orthogonalEdgeStyle;rounded=0;orthogonalLoop=1;jettySize=auto;html=1;entryX=0.887;entryY=1.057;entryDx=0;entryDy=0;entryPerimeter=0;" edge="1" parent="1" source="-7qrSR0_tHpjOpSgIJrC-34" target="-7qrSR0_tHpjOpSgIJrC-19">
          <mxGeometry relative="1" as="geometry" />
        </mxCell>
        <mxCell id="-7qrSR0_tHpjOpSgIJrC-72" style="edgeStyle=orthogonalEdgeStyle;rounded=0;orthogonalLoop=1;jettySize=auto;html=1;" edge="1" parent="1" source="-7qrSR0_tHpjOpSgIJrC-69" target="-7qrSR0_tHpjOpSgIJrC-70">
          <mxGeometry relative="1" as="geometry" />
        </mxCell>
        <mxCell id="-7qrSR0_tHpjOpSgIJrC-69" value="&lt;span style=&quot;font-size: 26px;&quot;&gt;sesli okunacak metni modele ulaştırmak üzere&lt;/span&gt;" style="ellipse;whiteSpace=wrap;html=1;fillColor=#e1d5e7;strokeColor=#9673a6;" vertex="1" parent="1">
          <mxGeometry x="130" y="960" width="330" height="260" as="geometry" />
        </mxCell>
        <mxCell id="-7qrSR0_tHpjOpSgIJrC-75" style="edgeStyle=orthogonalEdgeStyle;rounded=0;orthogonalLoop=1;jettySize=auto;html=1;" edge="1" parent="1" source="-7qrSR0_tHpjOpSgIJrC-70" target="-7qrSR0_tHpjOpSgIJrC-73">
          <mxGeometry relative="1" as="geometry" />
        </mxCell>
        <mxCell id="-7qrSR0_tHpjOpSgIJrC-70" value="&lt;h1&gt;APP BACKEND&lt;/h1&gt;" style="whiteSpace=wrap;html=1;strokeColor=#457B9D;fontColor=#1D3557;fillColor=#A8DADC;labelBackgroundColor=none;" vertex="1" parent="1">
          <mxGeometry x="200" y="1400" width="150" height="70" as="geometry" />
        </mxCell>
        <mxCell id="-7qrSR0_tHpjOpSgIJrC-76" style="edgeStyle=orthogonalEdgeStyle;rounded=0;orthogonalLoop=1;jettySize=auto;html=1;entryX=0.5;entryY=1;entryDx=0;entryDy=0;" edge="1" parent="1" source="-7qrSR0_tHpjOpSgIJrC-73" target="LRJ7ucOdWmaU4i4guX7y-22">
          <mxGeometry relative="1" as="geometry" />
        </mxCell>
        <mxCell id="-7qrSR0_tHpjOpSgIJrC-73" value="&lt;h1&gt;APP FRONTEND&lt;/h1&gt;" style="whiteSpace=wrap;html=1;strokeColor=#457B9D;fontColor=#1D3557;fillColor=#A8DADC;labelBackgroundColor=none;" vertex="1" parent="1">
          <mxGeometry x="480" y="460" width="230" height="80" as="geometry" />
        </mxCell>
      </root>
    </mxGraphModel>
  </diagram>
</mxfile>
